<svg fill="currentColor" viewBox="0 0 489.25 342.15">
    <g id="Layer_1-2">
        <g>
            <path class="cls-2" d="M436.71,0H52.54C23.55,0,0,23.61,0,52.6v236.95c0,28.99,23.55,52.6,52.54,52.6H436.71c28.93,0,52.54-23.61,52.54-52.6V52.6c0-28.99-23.61-52.6-52.54-52.6Zm15.72,289.55c0,8.75-7.03,15.78-15.72,15.78H52.54c-8.69,0-15.78-7.03-15.78-15.78V52.6c0-8.69,7.09-15.78,15.78-15.78H436.71c8.69,0,15.72,7.09,15.72,15.78v236.95Z" />
            <circle class="cls-1" cx="354.02" cy="172.32" r="45.99" />
            <circle class="cls-3" cx="244.62" cy="171.07" r="45.99" />
            <circle class="cls-2" cx="135.23" cy="169.83" r="45.99" />
        </g>
    </g>
</svg>